<?xml version="1.0" encoding="utf-8"?>
<!-- Generator: Adobe Illustrator 23.0.3, SVG Export Plug-In . SVG Version: 6.00 Build 0)  -->
<svg version="1.1" id="Layer_1" xmlns="http://www.w3.org/2000/svg" xmlns:xlink="http://www.w3.org/1999/xlink" x="0px" y="0px"
	 viewBox="0 0 288 288" style="enable-background:new 0 0 288 288;" xml:space="preserve">
<style type="text/css">
	.st0{fill:none;}
	.st1{fill:#414042;}
	.st2{fill:#F5333F;}
</style>
<text transform="matrix(1 0 0 1 330.8168 139.0488)" style="display:none; font-family:'BebasNeue'; font-size:34.7852px;">SHREDDIT</text>
<g>
	<path class="st0" d="M165.8,151.7c0.6,0,1.1-0.2,1.6-0.5c0.4-0.3,0.8-1,1-1.8l2.3-8.7l-4.3,0.7l-2.8,10.4H165.8z"/>
	<path class="st0" d="M182,151.7c0.6,0,1.1-0.2,1.6-0.5c0.4-0.3,0.8-1,1-1.8l3-11.2l-4.3,0.7l-3.5,13H182z"/>
	<path class="st0" d="M171.7,136.6c0.2-0.9,0.2-1.5,0-1.8c-0.3-0.3-0.7-0.5-1.3-0.5h-2.2l-1.9,7l4.3-0.7L171.7,136.6z"/>
	<path class="st0" d="M101.7,151.9c0.6,0,1.1-0.2,1.6-0.5c0.2-0.1,0.4-0.4,0.5-0.6l-3.4,0.5c0,0,0,0.1,0,0.1
		C100.7,151.7,101.1,151.9,101.7,151.9z"/>
	<polygon class="st0" points="117.6,144.7 116.4,148.9 121,148.2 121.9,144.7 	"/>
	<path class="st0" d="M140.5,134.9c-0.2-0.4-0.6-0.6-1.3-0.6h-1.8l-2,7.5h1.5c0.7,0,1.3-0.2,1.8-0.6c0.5-0.4,0.9-1,1.1-2l0.6-2.4
		C140.7,135.9,140.7,135.2,140.5,134.9z"/>
	<path class="st0" d="M135.7,145.2h-1.3l-0.3,1l3.1-0.5C136.9,145.4,136.4,145.2,135.7,145.2z"/>
	<path class="st0" d="M188,136.6c0.2-0.9,0.2-1.5,0-1.8c-0.3-0.3-0.7-0.5-1.3-0.5h-2.2l-1.2,4.4l4.3-0.7L188,136.6z"/>
	<polygon class="st0" points="212.5,134.3 212.5,134.3 212.5,134.3 	"/>
	<path class="st1" d="M103.3,151.4c-0.5,0.3-1,0.5-1.6,0.5c-0.6,0-1-0.2-1.3-0.5c0,0,0-0.1,0-0.1l-3.9,0.6c0,0.8,0.2,1.4,0.6,1.9
		c0.7,1.1,2,1.6,3.8,1.6c1.9,0,3.4-0.5,4.7-1.6c1.1-0.9,1.8-2.1,2.4-3.7l-4.1,0.6C103.7,151,103.5,151.2,103.3,151.4z"/>
	<path class="st2" d="M108.5,144.7c-0.1-0.9-0.4-1.6-0.8-2.3c-0.4-0.7-0.8-1.3-1.3-1.9s-0.9-1.1-1.3-1.7s-0.7-1.2-0.9-1.8
		c-0.2-0.6-0.2-1.4,0-2.2c0.2-0.9,0.6-1.5,1-1.9c0.4-0.4,1-0.5,1.6-0.5c0.6,0,1,0.2,1.3,0.5c0.2,0.4,0.2,1,0,1.9l-0.3,1.2h3.6
		l0.3-0.9c0.5-2,0.5-3.5-0.2-4.5c-0.7-1.1-1.9-1.6-3.8-1.6c-1.9,0-3.4,0.5-4.7,1.6c-1.2,1.1-2.1,2.6-2.6,4.5c-0.3,1.2-0.4,2.2-0.3,3
		c0.1,0.9,0.4,1.6,0.8,2.3s0.8,1.3,1.3,1.9c0.5,0.6,0.9,1.1,1.3,1.7c0.4,0.6,0.7,1.2,0.9,1.8c0.2,0.6,0.2,1.4,0,2.2
		c-0.1,0.5-0.3,0.9-0.5,1.2l4.1-0.6c0.1-0.3,0.2-0.6,0.3-0.9C108.5,146.5,108.6,145.5,108.5,144.7z"/>
	<path class="st2" d="M100.4,149.5l0.5-1.9h-3.6l-0.4,1.7c-0.3,1-0.4,1.8-0.3,2.6l3.9-0.6C100.2,150.9,100.1,150.4,100.4,149.5z"/>
	<polygon class="st2" points="125.6,129.2 122.8,139.6 118.5,139.6 121.3,129.2 117.5,129.2 112.5,147.9 116.4,147.3 117.6,143.1 
		121.9,143.1 121,146.6 125,146 129.5,129.2 	"/>
	<polygon class="st1" points="110.9,155.1 114.8,155.1 116.4,148.9 112.5,149.5 	"/>
	<polygon class="st1" points="119.1,155.1 123,155.1 125,147.6 121,148.2 	"/>
	<path class="st2" d="M140,141.6c1.9-0.8,3.2-2.4,3.8-4.9l0.5-1.9c0.5-1.9,0.4-3.3-0.2-4.2c-0.6-0.9-2-1.4-4-1.4h-5.8l-4.3,16l4-0.6
		l0.3-1h1.3c0.7,0,1.2,0.2,1.5,0.5l4.2-0.6C141.3,142.6,140.8,142,140,141.6z M138.6,139.6c-0.5,0.4-1.1,0.6-1.8,0.6h-1.5l2-7.5h1.8
		c0.7,0,1.1,0.2,1.3,0.6c0.2,0.4,0.2,1,0,1.9l-0.6,2.4C139.5,138.5,139.1,139.2,138.6,139.6z"/>
	<path class="st1" d="M137.4,145.9c0.3,0.5,0.3,1.3-0.1,2.4l-1,3.8c-0.1,0.5-0.2,0.9-0.3,1.2s-0.1,0.6-0.1,0.8s0,0.4,0,0.5
		c0,0.1,0,0.3,0,0.5h3.9c-0.1-0.5-0.1-0.9,0-1.4c0.1-0.5,0.2-1,0.4-1.6l1-3.8c0.3-1.3,0.5-2.4,0.3-3.3c0,0,0-0.1,0-0.1l-4.2,0.6
		C137.3,145.8,137.4,145.8,137.4,145.9z"/>
	<polygon class="st1" points="127.9,155.1 131.7,155.1 134.1,146.2 130.1,146.8 	"/>
	<polygon class="st1" points="144,155.1 154.4,155.1 155.3,151.7 148.7,151.7 150.6,144.5 155.9,144.5 156.3,142.8 146.9,144.2 	"/>
	<polygon class="st2" points="151.6,139.5 153.4,132.7 160,132.7 160.9,129.2 150.5,129.2 146.9,142.6 156.3,141.2 156.8,139.5 	"/>
	<path class="st2" d="M175.3,130.7c-0.7-1-2-1.5-3.9-1.5h-6.1l-3,11.1l4-0.6l1.9-7h2.2c0.6,0,1,0.2,1.3,0.5c0.3,0.3,0.3,1,0,1.8
		l-1.1,4l4-0.6l0.9-3.2C176,133.2,176,131.7,175.3,130.7z"/>
	<path class="st1" d="M168.3,149.3c-0.2,0.9-0.6,1.5-1,1.8c-0.4,0.3-1,0.5-1.6,0.5h-2.2l2.8-10.4l-4,0.6l-3.6,13.3h6.1
		c1.9,0,3.5-0.5,4.7-1.5c1.2-1,2.1-2.5,2.6-4.5l2.4-9.1l-4,0.6L168.3,149.3z"/>
	<path class="st1" d="M184.6,149.3c-0.2,0.9-0.6,1.5-1,1.8c-0.4,0.3-1,0.5-1.6,0.5h-2.2l3.5-13l-4,0.6l-4.2,15.8h6.1
		c1.9,0,3.5-0.5,4.7-1.5c1.2-1,2.1-2.5,2.6-4.5l3.1-11.7l-4,0.6L184.6,149.3z"/>
	<path class="st2" d="M191.6,130.7c-0.7-1-2-1.5-3.9-1.5h-6.1l-2.3,8.5l4-0.6l1.2-4.4h2.2c0.6,0,1,0.2,1.3,0.5c0.3,0.3,0.3,1,0,1.8
		l-0.4,1.4l4-0.6l0.2-0.6C192.3,133.2,192.2,131.7,191.6,130.7z"/>
	<polygon class="st1" points="191.4,155.1 195.2,155.1 200.3,136.1 196.3,136.7 	"/>
	<polygon class="st2" points="197.9,129.2 196.3,135.1 200.3,134.5 201.7,129.2 	"/>
	<polygon class="st1" points="203.1,155.1 206.9,155.1 212.5,134.3 208.5,134.9 	"/>
	<polygon class="st2" points="212.5,132.7 216.6,132 217.4,129.2 205.6,129.2 204.6,132.7 208.6,132.7 208.5,133.3 212.5,132.7 
		212.5,132.7 	"/>
</g>
</svg>
