<svg id="Layer_1" data-name="Layer 1" xmlns="http://www.w3.org/2000/svg" viewBox="0 0 120.9 26.4"><defs><style>.cls-1{fill:none;}.cls-2{fill:#fff;}</style></defs><title>shreddit-logo-reverse</title><path class="cls-1" d="M165.8,151.7a3,3,0,0,0,1.6-.5,3.41,3.41,0,0,0,1-1.8l2.3-8.7-4.3.7-2.8,10.4h2.2Z" transform="translate(-96.5 -129)"/><path class="cls-1" d="M182,151.7a3,3,0,0,0,1.6-.5,3.41,3.41,0,0,0,1-1.8l3-11.2-4.3.7-3.5,13H182Z" transform="translate(-96.5 -129)"/><path class="cls-1" d="M171.7,136.6a2.62,2.62,0,0,0,0-1.8,1.73,1.73,0,0,0-1.3-.5h-2.2l-1.9,7,4.3-.7Z" transform="translate(-96.5 -129)"/><path class="cls-1" d="M101.7,151.9a3,3,0,0,0,1.6-.5,1.47,1.47,0,0,0,.5-.6l-3.4.5v.1A1.73,1.73,0,0,0,101.7,151.9Z" transform="translate(-96.5 -129)"/><polygon class="cls-1" points="21.1 15.7 19.9 19.9 24.5 19.2 25.4 15.7 21.1 15.7"/><path class="cls-1" d="M140.5,134.9c-.2-.4-.6-.6-1.3-.6h-1.8l-2,7.5h1.5a2.79,2.79,0,0,0,1.8-.6,3.2,3.2,0,0,0,1.1-2l.6-2.4A2.52,2.52,0,0,0,140.5,134.9Z" transform="translate(-96.5 -129)"/><path class="cls-1" d="M135.7,145.2h-1.3l-.3,1,3.1-.5A2.07,2.07,0,0,0,135.7,145.2Z" transform="translate(-96.5 -129)"/><path class="cls-1" d="M188,136.6a2.62,2.62,0,0,0,0-1.8,1.73,1.73,0,0,0-1.3-.5h-2.2l-1.2,4.4,4.3-.7Z" transform="translate(-96.5 -129)"/><path class="cls-1" d="M212.5,134.3Z" transform="translate(-96.5 -129)"/><path class="cls-2" d="M103.3,151.4a3,3,0,0,1-1.6.5,1.73,1.73,0,0,1-1.3-.5v-.1l-3.9.6a2.88,2.88,0,0,0,.6,1.9c.7,1.1,2,1.6,3.8,1.6a6.88,6.88,0,0,0,4.7-1.6,8.23,8.23,0,0,0,2.4-3.7l-4.1.6A4.35,4.35,0,0,1,103.3,151.4Z" transform="translate(-96.5 -129)"/><path class="cls-2" d="M108.5,144.7a5.72,5.72,0,0,0-.8-2.3,12.74,12.74,0,0,0-1.3-1.9,19.23,19.23,0,0,1-1.3-1.7,7.57,7.57,0,0,1-.9-1.8,4.09,4.09,0,0,1,0-2.2,3.77,3.77,0,0,1,1-1.9,2.2,2.2,0,0,1,1.6-.5,1.73,1.73,0,0,1,1.3.5,3,3,0,0,1,0,1.9l-.3,1.2h3.6l.3-.9c.5-2,.5-3.5-.2-4.5s-1.9-1.6-3.8-1.6a6.88,6.88,0,0,0-4.7,1.6,9.11,9.11,0,0,0-2.6,4.5,8.43,8.43,0,0,0-.3,3,5.72,5.72,0,0,0,.8,2.3,12.74,12.74,0,0,0,1.3,1.9,19.23,19.23,0,0,1,1.3,1.7,7.57,7.57,0,0,1,.9,1.8,4.09,4.09,0,0,1,0,2.2,3.34,3.34,0,0,1-.5,1.2l4.1-.6.3-.9A11,11,0,0,0,108.5,144.7Z" transform="translate(-96.5 -129)"/><path class="cls-2" d="M100.4,149.5l.5-1.9H97.3l-.4,1.7a6.14,6.14,0,0,0-.3,2.6l3.9-.6A1.79,1.79,0,0,1,100.4,149.5Z" transform="translate(-96.5 -129)"/><polygon class="cls-2" points="29.1 0.2 26.3 10.6 22 10.6 24.8 0.2 21 0.2 16 18.9 19.9 18.3 21.1 14.1 25.4 14.1 24.5 17.6 28.5 17 33 0.2 29.1 0.2"/><polygon class="cls-2" points="14.4 26.1 18.3 26.1 19.9 19.9 16 20.5 14.4 26.1"/><polygon class="cls-2" points="22.6 26.1 26.5 26.1 28.5 18.6 24.5 19.2 22.6 26.1"/><path class="cls-2" d="M140,141.6a6.56,6.56,0,0,0,3.8-4.9l.5-1.9c.5-1.9.4-3.3-.2-4.2s-2-1.4-4-1.4h-5.8l-4.3,16,4-.6.3-1h1.3a2.07,2.07,0,0,1,1.5.5l4.2-.6A2.05,2.05,0,0,0,140,141.6Zm-1.4-2a2.79,2.79,0,0,1-1.8.6h-1.5l2-7.5h1.8c.7,0,1.1.2,1.3.6a3,3,0,0,1,0,1.9l-.6,2.4A4.27,4.27,0,0,1,138.6,139.6Z" transform="translate(-96.5 -129)"/><path class="cls-2" d="M137.4,145.9a2.88,2.88,0,0,1-.1,2.4l-1,3.8a10.38,10.38,0,0,1-.3,1.2,2.49,2.49,0,0,0-.1.8v1h3.9a3.3,3.3,0,0,1,0-1.4,12.44,12.44,0,0,1,.4-1.6l1-3.8a7.94,7.94,0,0,0,.3-3.3v-.1l-4.2.6C137.3,145.8,137.4,145.8,137.4,145.9Z" transform="translate(-96.5 -129)"/><polygon class="cls-2" points="31.4 26.1 35.2 26.1 37.6 17.2 33.6 17.8 31.4 26.1"/><polygon class="cls-2" points="47.5 26.1 57.9 26.1 58.8 22.7 52.2 22.7 54.1 15.5 59.4 15.5 59.8 13.8 50.4 15.2 47.5 26.1"/><polygon class="cls-2" points="55.1 10.5 56.9 3.7 63.5 3.7 64.4 0.2 54 0.2 50.4 13.6 59.8 12.2 60.3 10.5 55.1 10.5"/><path class="cls-2" d="M175.3,130.7q-1.05-1.5-3.9-1.5h-6.1l-3,11.1,4-.6,1.9-7h2.2a1.73,1.73,0,0,1,1.3.5c.3.3.3,1,0,1.8l-1.1,4,4-.6.9-3.2C176,133.2,176,131.7,175.3,130.7Z" transform="translate(-96.5 -129)"/><path class="cls-2" d="M168.3,149.3a3,3,0,0,1-1,1.8,2.77,2.77,0,0,1-1.6.5h-2.2l2.8-10.4-4,.6-3.6,13.3h6.1a7.16,7.16,0,0,0,4.7-1.5,8.3,8.3,0,0,0,2.6-4.5l2.4-9.1-4,.6Z" transform="translate(-96.5 -129)"/><path class="cls-2" d="M184.6,149.3a3,3,0,0,1-1,1.8,2.77,2.77,0,0,1-1.6.5h-2.2l3.5-13-4,.6L175.1,155h6.1a7.16,7.16,0,0,0,4.7-1.5,8.3,8.3,0,0,0,2.6-4.5l3.1-11.7-4,.6Z" transform="translate(-96.5 -129)"/><path class="cls-2" d="M191.6,130.7q-1-1.5-3.9-1.5h-6.1l-2.3,8.5,4-.6,1.2-4.4h2.2a1.73,1.73,0,0,1,1.3.5c.3.3.3,1,0,1.8l-.4,1.4,4-.6.2-.6C192.3,133.2,192.2,131.7,191.6,130.7Z" transform="translate(-96.5 -129)"/><polygon class="cls-2" points="94.9 26.1 98.7 26.1 103.8 7.1 99.8 7.7 94.9 26.1"/><polygon class="cls-2" points="101.4 0.2 99.8 6.1 103.8 5.5 105.2 0.2 101.4 0.2"/><polygon class="cls-2" points="106.6 26.1 110.4 26.1 116 5.3 112 5.9 106.6 26.1"/><polygon class="cls-2" points="116 3.7 120.1 3 120.9 0.2 109.1 0.2 108.1 3.7 112.1 3.7 112 4.3 116 3.7 116 3.7"/></svg>